PathFileType	4	(X/Y/Z)	C:/Users/opensim2020/Desktop/walking_exp_matlab/subject06_walking18_straight_03_cyclic.trc	
DataRate	CameraRate	NumFrames	NumMarkers	Units	OrigDataRate	OrigDataStartFrame	OrigNumFrames	
100.00	100.00	6	47	mm	100.00	3361	148	
Frame#	Time	LFHD			RFHD			LBHD			RBHD			C7			T10			CLAV			STRN			RBAK			LSHO			LUPA			LELB			LFRM			LWRA			LWRB			LFIN			RSHO			RUPA			RELB			RFRM			RWRA			RWRB			RFIN			LASI			RASI			LPSI			RPSI			LTHI			LKNE			LTIB			LANK			LHEE			LTOE			RTHI			RKNE			RTIB			RANK			RHEE			RTOE			*39			*40			*41			*42			*43			*44			*45			*46			
		X1	Y1	Z1	X2	Y2	Z2	X3	Y3	Z3	X4	Y4	Z4	X5	Y5	Z5	X6	Y6	Z6	X7	Y7	Z7	X8	Y8	Z8	X9	Y9	Z9	X10	Y10	Z10	X11	Y11	Z11	X12	Y12	Z12	X13	Y13	Z13	X14	Y14	Z14	X15	Y15	Z15	X16	Y16	Z16	X17	Y17	Z17	X18	Y18	Z18	X19	Y19	Z19	X20	Y20	Z20	X21	Y21	Z21	X22	Y22	Z22	X23	Y23	Z23	X24	Y24	Z24	X25	Y25	Z25	X26	Y26	Z26	X27	Y27	Z27	X28	Y28	Z28	X29	Y29	Z29	X30	Y30	Z30	X31	Y31	Z31	X32	Y32	Z32	X33	Y33	Z33	X34	Y34	Z34	X35	Y35	Z35	X36	Y36	Z36	X37	Y37	Z37	X38	Y38	Z38	X39	Y39	Z39	X40	Y40	Z40	X41	Y41	Z41	X42	Y42	Z42	X43	Y43	Z43	X44	Y44	Z44	X45	Y45	Z45	X46	Y46	Z46	X47	Y47	Z47	

1	0.000	1402.20728	-443.40955	1677.30835	1532.55481	-445.66028	1659.33630	1395.46802	-572.71631	1614.34778	1524.58923	-573.67688	1601.78650	1442.01135	-565.99084	1458.98511	1438.28638	-604.86053	1131.96802	1448.78931	-455.31137	1382.74133	1439.91248	-415.95627	1208.64014	1511.36731	-643.25647	1287.88757	1284.04858	-496.61719	1418.11633	1208.63159	-489.77377	1217.52344	1196.62268	-487.77359	1105.03772	1189.23962	-403.95807	980.97406	1248.22754	-299.43451	919.54413	1210.08228	-344.38763	880.14740	1222.83398	-267.46436	832.79285	1606.60962	-511.26877	1409.19519	1684.98474	-560.45459	1209.85291	1693.26575	-556.05847	1087.23694	1707.73059	-542.75439	967.37360	1677.39453	-479.41660	829.16913	1712.51782	-537.25012	829.63757	1715.38147	-501.07104	753.34033	1336.27161	-427.54730	968.93207	1556.35474	-428.62839	979.78235	1361.77039	-584.47784	996.79199	1529.84521	-580.81030	1004.59552	1281.83472	-516.52802	649.75970	1301.30981	-533.85107	485.61804	1302.74426	-700.17255	288.28021	1340.56165	-798.94659	145.60052	1384.76367	-841.18518	156.02271	1353.04822	-698.90063	40.10080	1612.95386	-449.44189	647.78040	1584.63855	-427.15576	525.96027	1586.46204	-447.75714	259.48169	1540.29089	-444.98074	73.91340	1495.87390	-483.82626	49.17168	1536.60925	-290.73380	40.46403	1460.61499	-547.39380	1705.85742																					 
2	0.010	1403.54993	-437.66562	1677.82690	1533.92957	-439.53128	1659.98267	1397.22705	-566.87640	1614.81201	1526.35010	-567.51868	1602.36487	1444.01892	-559.66455	1459.31824	1440.26929	-598.61035	1132.42017	1450.46704	-449.16342	1383.31592	1441.21655	-409.85645	1209.12219	1514.00403	-636.72430	1288.36499	1285.78833	-491.37430	1418.62598	1210.56531	-484.84592	1217.92798	1198.43970	-482.86301	1105.53845	1189.90125	-401.09259	980.03790	1248.35730	-297.54999	915.90332	1209.52844	-343.09448	877.91913	1221.74719	-267.20453	829.17719	1608.46875	-504.32162	1409.75366	1687.16357	-553.07605	1210.32092	1695.08069	-548.81281	1087.72339	1709.47156	-535.30835	967.80035	1678.59436	-472.30981	829.69141	1713.81653	-529.95258	829.94330	1716.32776	-493.73776	753.72290	1337.52332	-421.88226	969.75623	1557.54907	-422.43674	980.00476	1363.08887	-578.78137	997.37384	1531.10376	-574.73865	1005.12811	1281.79163	-508.03625	650.10913	1300.62524	-522.61041	485.70056	1303.17627	-691.17938	291.38635	1340.71057	-792.79742	150.49641	1385.50891	-833.88879	162.22849	1353.15222	-697.11334	40.85714	1613.95264	-445.20755	647.81732	1585.52661	-423.78339	525.58954	1587.35364	-446.25049	259.34149	1540.37061	-444.90256	73.75179	1496.07458	-483.74228	49.16523	1536.76672	-290.51981	40.15519	1462.19287	-541.43585	1706.40564																					 
3	0.020	1404.88318	-431.78387	1678.20544	1535.35083	-433.27173	1660.52332	1398.96326	-561.17151	1615.19116	1528.09863	-561.42334	1602.87170	1445.98010	-553.62793	1459.82141	1442.27124	-592.81342	1132.88208	1451.96741	-443.17661	1383.71375	1442.58484	-403.89511	1209.51819	1516.57043	-630.27698	1288.69373	1287.48071	-486.23511	1419.02612	1212.31226	-479.93668	1218.23755	1200.17883	-478.06024	1105.76208	1190.56494	-398.31015	978.90607	1248.38208	-295.87595	912.01093	1208.87610	-342.19388	875.52252	1220.40637	-267.07068	825.25842	1610.22437	-497.38605	1410.18640	1689.33826	-545.57196	1210.68787	1697.07068	-541.12634	1088.09412	1711.09924	-527.92529	968.16644	1679.69556	-465.01373	830.06512	1715.26111	-522.52136	830.26270	1717.42859	-486.33371	754.01630	1338.35144	-416.06595	970.44873	1558.83716	-416.37494	980.11768	1364.22729	-573.07587	997.72784	1532.21045	-568.73364	1005.49139	1281.86646	-499.44879	650.31055	1300.13684	-511.24530	485.68375	1303.60193	-681.65430	294.13705	1340.78101	-785.63550	155.35873	1386.07971	-826.14563	168.18941	1353.45837	-695.16760	41.49430	1615.17297	-440.90875	648.08380	1587.08594	-420.23700	525.64148	1587.97156	-444.74707	259.22849	1540.56543	-444.76892	73.67459	1496.27551	-483.71765	49.22654	1536.92505	-290.33191	39.92393	1463.76709	-535.55603	1706.81519																					 
4	0.030	1406.17505	-426.18753	1678.44971	1536.57861	-427.30887	1660.93250	1400.70520	-555.43304	1615.41394	1529.83923	-555.29535	1603.24512	1448.13525	-548.11212	1460.27454	1444.04236	-586.88611	1133.18799	1453.29456	-437.32275	1384.10388	1443.87256	-397.99536	1209.82446	1519.09265	-624.16608	1289.14600	1289.02087	-481.12231	1419.26062	1214.00220	-475.24088	1218.39099	1201.83203	-473.29337	1105.91553	1191.10730	-395.30478	977.53168	1248.19775	-294.44220	907.94672	1208.03699	-341.33896	872.96069	1218.90979	-267.21979	821.19867	1611.89380	-490.49039	1410.52307	1691.50391	-537.97754	1210.96802	1698.99329	-533.57202	1088.37109	1712.78662	-520.23700	968.42883	1680.86523	-457.81323	830.36542	1716.72058	-515.01868	830.47534	1718.54651	-478.78778	754.27789	1339.83643	-410.74640	970.98456	1560.15051	-410.46561	980.13721	1365.34546	-567.59912	998.07715	1533.28552	-562.99109	1005.82385	1282.04883	-490.89020	650.38507	1299.88074	-499.95496	485.66876	1303.96179	-671.90961	296.49042	1340.82715	-778.62115	159.78900	1386.55469	-818.19263	173.71135	1352.54565	-691.56671	43.23473	1616.00623	-436.92627	647.94891	1588.27771	-416.93808	525.45190	1588.84204	-443.69873	259.14935	1540.87317	-444.58661	73.59130	1496.34216	-483.72711	49.24224	1536.97864	-290.16583	39.59272	1465.31226	-529.63470	1707.15442																					 
5	0.040	1407.41541	-420.87405	1678.51929	1537.96021	-421.06931	1661.22937	1402.38489	-549.72894	1615.59961	1531.54358	-549.21045	1603.54370	1449.99890	-542.27618	1460.49060	1445.81384	-581.25037	1133.45654	1454.58691	-431.51105	1384.29968	1444.95337	-392.26932	1210.01538	1521.42566	-617.78369	1289.41235	1290.52905	-476.16144	1419.49011	1215.62488	-470.69913	1218.44690	1203.42261	-468.68250	1105.98242	1191.68359	-393.06604	976.15601	1247.60974	-293.25635	903.73444	1207.19568	-341.10254	870.31104	1217.17065	-267.89951	816.89008	1613.44849	-483.64993	1410.75464	1693.58350	-530.34045	1211.14294	1700.78003	-525.99585	1088.56128	1714.50549	-512.46173	968.57629	1682.02856	-450.44888	830.74365	1718.36548	-507.38434	830.76276	1719.78711	-471.22174	754.47400	1340.89624	-405.26645	971.34351	1561.10315	-404.67947	980.05792	1366.39417	-562.04474	998.21155	1534.37073	-557.19836	1006.05737	1282.33679	-482.41766	650.30286	1299.87415	-488.63809	485.58319	1304.23828	-662.00659	298.70285	1341.10693	-770.90277	163.84622	1387.21350	-809.84930	178.19054	1351.11938	-685.83807	45.69443	1616.87231	-432.95361	647.99084	1589.37000	-413.97342	525.28918	1589.42200	-442.53729	259.00452	1540.79993	-444.64368	73.55006	1496.39368	-483.67328	49.21821	1537.48242	-290.17044	39.45246	1466.86414	-523.77496	1707.39441																					 
6	0.050	1408.60950	-414.86536	1678.74548	1539.19458	-414.99246	1661.46997	1404.06274	-544.11237	1615.74634	1533.22205	-543.14160	1603.76880	1451.65808	-536.15424	1460.60229	1447.43164	-575.64886	1133.67432	1455.96924	-425.63693	1384.54419	1446.02625	-386.64581	1210.11182	1523.73279	-611.84711	1289.69080	1291.93274	-471.22427	1419.63196	1217.20398	-466.27216	1218.45349	1204.94910	-464.00613	1105.98962	1191.99292	-390.32047	974.63385	1246.90955	-292.29819	899.27905	1206.17346	-341.01944	867.44128	1215.15088	-268.94772	812.51056	1614.91931	-476.93167	1410.89453	1695.61926	-522.66638	1211.23694	1702.64453	-518.20776	1088.69482	1716.13049	-504.68839	968.69226	1682.94116	-443.05554	830.64771	1719.88171	-499.49869	830.74823	1721.06030	-463.47266	754.52063	1341.84717	-399.84497	971.60968	1562.33154	-398.80212	980.08716	1367.45227	-556.71533	998.29480	1535.43726	-551.56561	1006.25024	1282.70483	-473.97986	650.28693	1300.00867	-477.48035	485.58423	1304.62561	-652.09357	300.82401	1341.63708	-762.39124	167.33772	1388.25940	-801.02911	181.51064	1348.43237	-678.04596	48.83664	1617.80725	-428.97141	648.18140	1590.40149	-410.81866	524.99701	1589.83423	-441.51910	258.86942	1540.96265	-444.44812	73.48454	1496.37061	-483.61966	49.21049	1537.62244	-290.12695	39.18919	1468.37085	-517.91357	1707.57068																					 
